<svg xmlns="http://www.w3.org/2000/svg" viewBox="0 0 1200 1800" role="img" aria-labelledby="title desc">
  <title id="title">User-provided Dyson sphere star map asset</title>
  <desc id="desc">Text-based SVG reconstruction of the provided physical star-map image so the asset can be stored in Git without binary image files.</desc>
  <rect width="1200" height="1800" fill="#f7f5ed"/>
  <rect x="72" y="64" width="1056" height="1664" rx="8" fill="#fbfaf5" stroke="#151515" stroke-width="10"/>
  <path d="M230 1550 C360 1620 710 1640 950 1538" fill="none" stroke="#111" stroke-width="2" stroke-dasharray="6 12" opacity=".55"/>
  <path d="M150 520 C250 345 430 285 530 305 C630 325 635 455 510 590 C385 725 225 780 165 720 C115 670 120 590 150 520 Z" fill="none" stroke="#d9d260" stroke-width="28" opacity=".72"/>
  <circle cx="390" cy="515" r="120" fill="#251f38" stroke="#111" stroke-width="4"/>
  <path d="M390 395 L390 635 M270 515 L510 515" stroke="#eee" stroke-width="3" opacity=".7"/>
  <path d="M395 1040 C520 830 680 635 842 515 C892 600 920 688 878 782 C820 908 700 1048 610 1168 Z" fill="#111" opacity=".85"/>
  <circle cx="580" cy="970" r="170" fill="#208be7" stroke="#111" stroke-width="5"/>
  <path d="M480 900 C535 840 595 835 675 872 C640 912 585 915 548 960 C520 1000 490 987 440 1010 C430 963 445 928 480 900 Z" fill="#f4f0dc" stroke="#416b4d" stroke-width="3"/>
  <path d="M610 1010 C680 960 735 990 765 1040 C720 1110 650 1125 590 1080 Z" fill="#e8e4d2" stroke="#416b4d" stroke-width="3"/>
  <path d="M755 595 C850 505 965 530 1025 625 C1068 693 1045 802 960 855 C860 918 740 862 706 760 C684 695 704 642 755 595 Z" fill="#eaa53d" stroke="#111" stroke-width="5"/>
  <path d="M720 655 C840 705 934 784 1010 858 M775 545 C840 650 900 760 945 870 M690 760 C810 675 915 610 1030 580" fill="none" stroke="#e8e4d2" stroke-width="24"/>
  <path d="M735 640 C835 695 940 770 1015 850 M775 545 C840 650 900 760 945 870 M690 760 C810 675 915 610 1030 580" fill="none" stroke="#384f78" stroke-width="10" stroke-dasharray="8 10"/>
  <circle cx="678" cy="884" r="45" fill="#d7b83f" stroke="#111" stroke-width="4"/>
  <path d="M833 930 C925 960 1025 1050 1058 1168 C1100 1320 1002 1452 840 1430 C720 1414 664 1310 697 1190 C724 1088 768 1006 833 930 Z" fill="none" stroke="#222" stroke-width="7"/>
  <path d="M812 1025 C920 1095 1010 1235 1012 1372 M734 1175 C856 1192 980 1190 1080 1130" fill="none" stroke="#c7b84a" stroke-width="8" opacity=".65"/>
  <path d="M235 1185 L368 1050 L475 1195 Z" fill="none" stroke="#222" stroke-width="6"/>
  <circle cx="235" cy="1185" r="10" fill="#d6a74a"/><circle cx="368" cy="1050" r="10" fill="#d6a74a"/><circle cx="475" cy="1195" r="10" fill="#d6a74a"/>
  <g fill="#111" opacity=".82">
    <circle cx="170" cy="260" r="4"/><circle cx="245" cy="320" r="3"/><circle cx="325" cy="275" r="5"/><circle cx="760" cy="210" r="4"/><circle cx="1030" cy="330" r="4"/>
    <circle cx="1020" cy="915" r="5"/><circle cx="980" cy="1240" r="4"/><circle cx="735" cy="1510" r="5"/><circle cx="450" cy="1515" r="4"/><circle cx="300" cy="1390" r="3"/>
    <circle cx="970" cy="250" r="3"/><circle cx="590" cy="300" r="3"/><circle cx="565" cy="700" r="4"/><circle cx="190" cy="930" r="4"/>
  </g>
  <g stroke="#555" stroke-width="2" stroke-dasharray="6 8" opacity=".6" fill="none">
    <path d="M170 260 L245 320 L325 275"/><path d="M760 210 L970 250 L1030 330"/><path d="M1020 915 L980 1240 L735 1510 L450 1515"/><path d="M300 1390 L450 1515 L735 1510"/><path d="M190 930 L235 1185 L368 1050"/>
  </g>
  <g stroke="#111" stroke-width="2" opacity=".72">
    <path d="M140 1500 l-22 0 m11 -11 l0 22 m-8 -8 l16 16 m0 -16 l-16 16"/>
    <path d="M1040 1500 l-22 0 m11 -11 l0 22 m-8 -8 l16 16 m0 -16 l-16 16"/>
    <path d="M940 420 l-22 0 m11 -11 l0 22 m-8 -8 l16 16 m0 -16 l-16 16"/>
    <path d="M205 735 l-22 0 m11 -11 l0 22 m-8 -8 l16 16 m0 -16 l-16 16"/>
  </g>
  <text x="96" y="112" fill="#263247" font-family="system-ui, Segoe UI, Arial" font-size="28" font-weight="700">Central Synaptic Intelligence Systems</text>
  <text x="96" y="148" fill="#596172" font-family="system-ui, Segoe UI, Arial" font-size="18">Provided physical map asset • Git-safe SVG transcription • 1-second metering anchor</text>
</svg>
